HIERARCHY
ROOT SpineBase
{
  OFFSET 0.000000 0.000000 0.000000
  CHANNELS 6 Xposition Yposition Zposition Zrotation Xrotation Yrotation
  JOINT SpineMid
  {
    OFFSET 0.000000 31.124152 0.000000
    CHANNELS 3 Zrotation Xrotation Yrotation
    JOINT SpineShoulder
    {
      OFFSET -0.120370 23.017586 -0.828128
      CHANNELS 3 Zrotation Xrotation Yrotation
      JOINT Neck
      {
        OFFSET -0.081577 7.585365 -0.611858
        CHANNELS 3 Zrotation Xrotation Yrotation
        JOINT Head
        {
          OFFSET -2.868458 11.579171 5.494402
          CHANNELS 3 Zrotation Xrotation Yrotation
          End Site
          {
            OFFSET 0 0 0
          }
        }
      }
      JOINT ShoulderLeft
      {
        OFFSET -7.263775 -2.630207 10.009529
        CHANNELS 3 Zrotation Xrotation Yrotation
        JOINT ElbowLeft
        {
          OFFSET 5.812048 -19.573400 -8.825820
          CHANNELS 3 Zrotation Xrotation Yrotation
          JOINT WristLeft
          {
            OFFSET -3.490530 -24.921093 12.646339
            CHANNELS 3 Zrotation Xrotation Yrotation
            JOINT HandLeft
            {
              OFFSET -1.130162 -8.350144 4.625881
              CHANNELS 3 Zrotation Xrotation Yrotation
              JOINT HandTipLeft
              {
                OFFSET -0.314393 -0.325816 -0.401921
                CHANNELS 3 Zrotation Xrotation Yrotation
                End Site
                {
                  OFFSET 0 0 0
                }
              }
              JOINT ThumbLeft
              {
                OFFSET -0.034753 0.470662 -2.421179
                CHANNELS 3 Zrotation Xrotation Yrotation
                End Site
                {
                  OFFSET 0 0 0
                }
              }
            }
          }
        }
      }
      JOINT ShoulderRight
      {
        OFFSET 5.912606 -4.774251 -13.337087
        CHANNELS 3 Zrotation Xrotation Yrotation
        JOINT ElbowRight
        {
          OFFSET 5.508624 -26.981615 -7.623512
          CHANNELS 3 Zrotation Xrotation Yrotation
          JOINT WristRight
          {
            OFFSET -2.643298 -21.797084 -4.062622
            CHANNELS 3 Zrotation Xrotation Yrotation
            JOINT HandRight
            {
              OFFSET -3.425245 -8.583788 0.802520
              CHANNELS 3 Zrotation Xrotation Yrotation
              JOINT HandTipRight
              {
                OFFSET -3.684524 -7.212632 -1.423295
                CHANNELS 3 Zrotation Xrotation Yrotation
                End Site
                {
                  OFFSET 0 0 0
                }
              }
              JOINT ThumbRight
              {
                OFFSET -3.610437 1.368434 6.583213
                CHANNELS 3 Zrotation Xrotation Yrotation
                End Site
                {
                  OFFSET 0 0 0
                }
              }
            }
          }
        }
      }
    }
  }
  JOINT HipLeft
  {
    OFFSET -3.951374 1.523471 1.064699
    CHANNELS 3 Zrotation Xrotation Yrotation
    JOINT KneeLeft
    {
      OFFSET 21.119059 -38.035730 6.598174
      CHANNELS 3 Zrotation Xrotation Yrotation
      JOINT AnkleLeft
      {
        OFFSET 4.178988 -32.120992 2.142647
        CHANNELS 3 Zrotation Xrotation Yrotation
        JOINT FootLeft
        {
          OFFSET -3.754272 -4.309721 -13.143148
          CHANNELS 3 Zrotation Xrotation Yrotation
          End Site
          {
            OFFSET 0 0 0
          }
        }
      }
    }
  }
  JOINT HipRight
  {
    OFFSET 3.215385 0.030397 -8.571239
    CHANNELS 3 Zrotation Xrotation Yrotation
    JOINT KneeRight
    {
      OFFSET 0.054178 -39.380657 -7.341337
      CHANNELS 3 Zrotation Xrotation Yrotation
      JOINT AnkleRight
      {
        OFFSET 10.589550 -33.648874 1.722647
        CHANNELS 3 Zrotation Xrotation Yrotation
        JOINT FootRight
        {
          OFFSET -1.381723 -8.667747 -3.518609
          CHANNELS 3 Zrotation Xrotation Yrotation
          End Site
          {
            OFFSET 0 0 0
          }
        }
      }
    }
  }
}
MOTION
Frames: 7
Frame Time: 0.033333
37.145582 80.743602 348.565412 4.085655 0.558364 -2.690016 1.377189 1.055658 2.835579 -1.174352 -0.266936 0.151781 -3.523527 8.841633 1.598235 0.000000 0.000000 0.000000 -12.265323 29.873416 13.286003 13.977798 -18.855998 -2.704623 6.482829 10.830873 2.122786 72.936147 -63.544311 72.141765 0.000000 0.000000 0.000000 0.000000 0.000000 0.000000 -59.210531 -7.241022 12.117366 -56.747808 -18.432652 -15.001744 -7.018938 -1.094106 -17.773871 6.854880 15.971983 34.255072 0.000000 0.000000 0.000000 0.000000 0.000000 0.000000 -12.050599 -5.697981 -1.923808 7.712418 7.390150 4.069291 -2.567389 -0.619269 5.680591 0.000000 0.000000 0.000000 -14.848305 6.263847 5.102605 9.622096 -3.469294 0.045210 -2.866103 10.702148 -1.934614 0.000000 0.000000 0.000000
36.592072 80.598077 348.711221 3.300266 0.373953 -2.591977 1.678067 1.098564 2.729579 -1.208545 -0.238474 0.125752 -3.276660 9.406694 1.890673 0.000000 0.000000 0.000000 -13.355275 32.363911 15.164146 19.536008 -17.561320 0.674396 4.758033 5.445820 2.834318 67.839315 -66.094800 57.281874 0.000000 0.000000 0.000000 0.000000 0.000000 0.000000 -59.262117 -7.268926 12.397758 -58.525353 -19.141812 -16.487508 -4.487704 1.915995 -16.072379 5.095764 11.425972 34.043955 0.000000 0.000000 0.000000 0.000000 0.000000 0.000000 -10.448976 -5.529005 -1.819893 7.056623 7.245917 3.962824 -1.854910 -4.334578 7.085968 0.000000 0.000000 0.000000 -13.611651 6.690530 4.975195 9.361336 -3.445161 0.194732 -3.779015 9.474400 -1.583374 0.000000 0.000000 0.000000
36.195587 80.480770 348.807712 2.810568 0.265913 -0.408365 1.820766 1.024993 0.538641 -1.174679 -0.192035 0.110436 -3.491618 9.852194 2.311093 0.000000 0.000000 0.000000 -14.004366 33.143462 16.119913 24.301600 -15.160024 3.862292 1.732155 -1.392732 3.180140 58.925911 -66.999192 37.638637 0.000000 0.000000 0.000000 0.000000 0.000000 0.000000 -59.709270 -7.629381 12.446808 -59.243067 -19.132000 -16.689134 -4.132907 1.841110 -16.431541 2.672310 11.774214 36.515940 0.000000 0.000000 0.000000 0.000000 0.000000 0.000000 -9.508531 -4.989113 -3.775261 6.525915 6.958178 3.819022 0.703535 -10.281321 5.532117 0.000000 0.000000 0.000000 -12.606873 7.339021 2.802511 9.210687 -3.255577 0.307110 -7.941052 9.249882 0.070618 0.000000 0.000000 0.000000
36.063078 80.410308 348.859858 2.728168 0.212713 2.930292 1.669019 0.843956 -2.804115 -1.054059 -0.169211 0.108474 -3.905914 10.408498 2.744004 0.000000 0.000000 0.000000 -14.106244 31.774258 15.867083 27.925138 -11.642918 6.139515 -2.374455 -9.179863 2.912032 42.114113 -64.131183 8.375594 0.000000 0.000000 0.000000 0.000000 0.000000 0.000000 -59.904387 -7.860237 12.452506 -59.278258 -18.905322 -16.278619 -4.754304 1.315615 -16.905128 4.084323 12.326876 36.128382 0.000000 0.000000 0.000000 0.000000 0.000000 0.000000 -9.519074 -4.252086 -6.943094 6.503214 6.688603 3.703196 2.621428 -16.310626 6.500905 0.000000 0.000000 0.000000 -12.111090 8.026623 -0.476815 9.256741 -3.059610 0.339149 -13.910186 9.821480 2.513773 0.000000 0.000000 0.000000
36.251361 80.400596 348.831739 3.127875 0.284540 7.075248 1.165001 0.626111 -6.950663 -0.827958 -0.135857 0.122115 -4.674276 10.860545 3.205455 0.000000 0.000000 0.000000 -14.567560 32.278027 16.278325 30.041941 -10.576793 7.669958 -4.471708 -12.799258 2.757163 37.124547 -62.992228 -0.477650 0.000000 0.000000 0.000000 0.000000 0.000000 0.000000 -59.956992 -7.933448 12.402789 -59.618313 -18.852090 -16.028449 -3.982876 1.222975 -17.318027 3.267416 14.187781 37.161278 0.000000 0.000000 0.000000 0.000000 0.000000 0.000000 -10.529082 -3.412839 -11.041968 6.888214 6.693467 3.705314 4.020725 -21.380909 9.631917 0.000000 0.000000 0.000000 -12.316737 8.681870 -4.496099 9.681863 -2.842894 0.291928 -21.693488 10.947309 5.827255 0.000000 0.000000 0.000000
36.290951 80.466554 348.844355 3.235168 0.287334 11.049916 1.000301 0.514480 -10.926592 -0.713387 -0.091128 0.127663 -5.178074 11.188903 3.539061 0.000000 0.000000 0.000000 -15.064382 32.582175 16.700296 30.728420 -10.775255 8.047738 -5.061230 -13.717825 2.651850 38.186035 -63.244797 0.215448 0.000000 0.000000 0.000000 0.000000 0.000000 0.000000 -60.453943 -8.049743 12.471373 -58.936645 -18.548401 -15.784924 -4.019422 0.031596 -18.279837 1.904396 14.907012 38.451903 0.000000 0.000000 0.000000 0.000000 0.000000 0.000000 -11.254899 -2.338446 -14.894568 7.510960 6.653389 3.674092 4.640714 -24.761436 14.609728 0.000000 0.000000 0.000000 -11.920314 9.354394 -8.416670 9.712358 -2.499527 0.307811 -29.964535 11.801966 9.433432 0.000000 0.000000 0.000000
36.306374 80.514802 348.852360 3.299814 0.276470 14.211841 0.888914 0.459387 -14.090023 -0.605991 -0.078178 0.133900 -5.552947 11.484940 3.787261 0.000000 0.000000 0.000000 -15.422027 32.909702 17.024048 29.380621 -12.883164 7.067531 -3.055335 -11.105172 3.172992 40.858801 -64.127303 4.005762 0.000000 0.000000 0.000000 0.000000 0.000000 0.000000 -61.062047 -8.129064 12.607418 -57.540320 -17.823789 -15.058577 -4.476733 -2.333730 -20.158781 1.062148 17.241706 39.749960 0.000000 0.000000 0.000000 0.000000 0.000000 0.000000 -11.763987 -1.422449 -17.952627 8.192739 6.562429 3.644356 3.322682 -24.319598 20.179914 0.000000 0.000000 0.000000 -11.538838 9.884364 -11.545223 9.742403 -2.230283 0.324561 -37.612941 12.426022 12.859392 0.000000 0.000000 0.000000
